<svg xmlns="http://www.w3.org/2000/svg" viewBox="0 0 225 92" role="img" aria-label="PureO">
<g transform="translate(16,66) scale(0.64)"><path fill="#FFFFFF" d="M5.800795555114746 20.41015625V-51.5625H15.927666425704956V-44.15624141693115H16.05168879032135Q17.685478925704956 -46.97557985782623 20.14104872941971 -48.84032756090164Q22.59661853313446 -50.70507526397705 25.646914541721344 -51.63964629173279Q28.697210550308228 -52.574217319488525 32.01752305030823 -52.574217319488525Q38.71186077594757 -52.574217319488525 43.727974593639374 -49.196287989616394Q48.74408841133118 -45.81835865974426 51.53608024120331 -39.7836908698082Q54.32807207107544 -33.74902307987213 54.32807207107544 -25.798827409744263Q54.32807207107544 -17.835938930511475 51.549263298511505 -11.796876788139343Q48.77045452594757 -5.757814645767212 43.7499463558197 -2.3730486631393433Q38.72943818569183 1.0117173194885254 31.982368230819702 1.0117173194885254Q28.64447832107544 1.0117173194885254 25.709906220436096 0.04638582468032837Q22.775334119796753 -0.9189456701278687 20.372986793518066 -2.8720706701278687Q17.97063946723938 -4.825195670127869 16.23821258544922 -7.777345180511475H16.122978925704956V20.41015625ZM29.895487427711487 -7.873967289924622Q34.06249284744263 -7.873967289924622 37.199223041534424 -9.935007989406586Q40.33595323562622 -11.99604868888855 42.113304138183594 -15.994107723236084Q43.89065504074097 -19.992166757583618 43.89065504074097 -25.798827409744263Q43.89065504074097 -31.645527482032776 42.113304138183594 -35.63479781150818Q40.33595323562622 -39.62406814098358 37.199223041534424 -41.685108840465546Q34.06249284744263 -43.74614953994751 29.895487427711487 -43.74614953994751Q25.497034192085266 -43.74614953994751 22.24067598581314 -41.52495115995407Q18.984317779541016 -39.30375277996063 17.211851477622986 -35.27444303035736Q15.439385175704956 -31.24513328075409 15.439385175704956 -25.798827409744263Q15.439385175704956 -20.392560958862305 17.211851477622986 -16.354462504386902Q18.984317779541016 -12.316364049911499 22.24067598581314 -10.09516566991806Q25.497034192085266 -7.873967289924622 29.895487427711487 -7.873967289924622Z M80.58205699920654 1.0117173194885254Q75.3095999956131 1.0117173194885254 71.06740927696228 -1.2939453125Q66.82521855831146 -3.5996079444885254 64.3716008067131 -8.16064327955246Q61.917983055114746 -12.721678614616394 61.917983055114746 -19.443362951278687V-51.5625H72.24016642570496V-20.71481943130493Q72.24016642570496 -14.53511118888855 75.22113329172134 -11.370062828063965Q78.20210015773773 -8.20501446723938 83.54196107387543 -8.20501446723938Q87.03806555271149 -8.20501446723938 89.85057628154755 -9.622010588645935Q92.6630870103836 -11.03900671005249 94.31397324800491 -14.07759040594101Q95.96485948562622 -17.11617410182953 95.96485948562622 -21.896463632583618V-51.5625H106.28704285621643V0.0H96.16896069049835V-12.807604670524597H98.54786550998688Q96.03516912460327 -5.909165740013123 91.51856756210327 -2.4487242102622986Q87.00196599960327 1.0117173194885254 80.58205699920654 1.0117173194885254Z M116.37501430511475 0.0V-51.5625H126.27141785621643V-43.228524923324585H126.44915294647217Q127.86516857147217 -47.45214879512787 130.9237630367279 -49.82763975858688Q133.98235750198364 -52.2031307220459 138.90422892570496 -52.2031307220459Q140.08000802993774 -52.2031307220459 141.06731128692627 -52.12305188179016Q142.0546145439148 -52.042973041534424 142.66593766212463 -51.96289420127869V-42.343807220458984Q142.0809806585312 -42.46392548084259 140.55754852294922 -42.644102871418Q139.03411638736725 -42.82428026199341 137.21868705749512 -42.82428026199341Q134.3515009880066 -42.82428026199341 131.94524955749512 -41.49713218212128Q129.53899812698364 -40.169984102249146 128.1180979013443 -37.43511885404587Q126.69719767570496 -34.70025360584259 126.69719767570496 -30.472707748413086V0.0Z M170.8466635942459 1.171875Q163.19920587539673 1.171875 157.69872385263443 -2.2905275225639343Q152.19824182987213 -5.752930045127869 149.24756306409836 -11.836425960063934Q146.29688429832458 -17.919921875 146.29688429832458 -25.701171159744263Q146.29688429832458 -33.571287989616394 149.3632869720459 -39.67040926218033Q152.4296896457672 -45.76953053474426 157.84814077615738 -49.25195276737213Q163.26659190654755 -52.734375 170.29588091373444 -52.734375Q175.7724391222 -52.734375 180.20358699560165 -50.785644352436066Q184.6347348690033 -48.83691370487213 187.80758249759674 -45.23681551218033Q190.98043012619019 -41.636717319488525 192.6776932477951 -36.702634394168854Q194.37495636940002 -31.768551468849182 194.37495636940002 -25.797846913337708V-22.975602746009827H150.93749928474426V-30.790027976036072H188.9716671705246L184.43166780471802 -28.405258059501648Q184.43166780471802 -33.22168290615082 182.70558732748032 -36.751970648765564Q180.97950685024261 -40.28225839138031 177.8339879512787 -42.208535969257355Q174.68846905231476 -44.1348135471344 170.39255666732788 -44.1348135471344Q166.145472407341 -44.1348135471344 163.01557886600494 -42.208535969257355Q159.88568532466888 -40.28225839138031 158.15960484743118 -36.751970648765564Q156.43352437019348 -33.22168290615082 156.43352437019348 -28.405258059501648V-23.966819047927856Q156.43352437019348 -19.092777371406555 158.1327484846115 -15.360340476036072Q159.83197259902954 -11.627903580665588 163.08833080530167 -9.532679617404938Q166.3446890115738 -7.437455654144287 170.9872828722 -7.437455654144287Q174.3681536912918 -7.437455654144287 176.95361095666885 -8.475057780742645Q179.5390682220459 -9.512659907341003 181.25147539377213 -11.37448400259018Q182.96388256549835 -13.236308097839355 183.7011890411377 -15.684559941291809H193.61909198760986Q192.651318192482 -10.69139838218689 189.4608931541443 -6.898920238018036Q186.27046811580658 -3.106442093849182 181.47164750099182 -0.9672835469245911Q176.67282688617706 1.171875 170.8466635942459 1.171875Z"/></g>
<circle cx="181.4" cy="47" r="28" stroke-width="9.5" stroke="#FFFFFF" fill="none"/>
<circle cx="181.4" cy="47" r="7.5" fill="#FFFFFF"/>
</svg>